<svg xmlns="http://www.w3.org/2000/svg" viewBox="0 0 400 400" fill="none" stroke="#1B1F27">
  
  <g opacity="0.92">
    
    <circle cx="200" cy="200" r="190" stroke-width="0.75"></circle>
    <circle cx="200" cy="200" r="180" stroke-width="0.5"></circle>
    <g stroke-width="0.6">
      
      
    </g>
    
    <g id="majorticks" stroke-width="0.8">
      <line x1="200" y1="10" x2="200" y2="30"></line>
      <line x1="200" y1="370" x2="200" y2="390"></line>
      <line x1="10" y1="200" x2="30" y2="200"></line>
      <line x1="370" y1="200" x2="390" y2="200"></line>
      <g transform="rotate(30 200 200)">
        <line x1="200" y1="10" x2="200" y2="25"></line>
        <line x1="200" y1="375" x2="200" y2="390"></line>
      </g>
      <g transform="rotate(60 200 200)">
        <line x1="200" y1="10" x2="200" y2="25"></line>
        <line x1="200" y1="375" x2="200" y2="390"></line>
      </g>
      <g transform="rotate(120 200 200)">
        <line x1="200" y1="10" x2="200" y2="25"></line>
        <line x1="200" y1="375" x2="200" y2="390"></line>
      </g>
      <g transform="rotate(150 200 200)">
        <line x1="200" y1="10" x2="200" y2="25"></line>
        <line x1="200" y1="375" x2="200" y2="390"></line>
      </g>
    </g>
    
    <circle cx="200" cy="200" r="155" stroke-width="0.5"></circle>
    <circle cx="200" cy="200" r="145" stroke-width="0.5"></circle>
    
    <circle cx="200" cy="230" r="95" stroke-width="0.5" stroke-dasharray="1 3"></circle>
    <circle cx="200" cy="170" r="60" stroke-width="0.5"></circle>
    
    <line x1="20" y1="200" x2="380" y2="200" stroke-width="0.6"></line>
    
    <line x1="200" y1="20" x2="200" y2="380" stroke-width="0.6"></line>
    
    <ellipse cx="200" cy="200" rx="130" ry="70" stroke-width="0.4"></ellipse>
    <ellipse cx="200" cy="200" rx="95" ry="50" stroke-width="0.4"></ellipse>
    <ellipse cx="200" cy="200" rx="60" ry="32" stroke-width="0.4"></ellipse>
    
    <g stroke-width="0.6">
      <line x1="200" y1="200" x2="310" y2="110"></line>
      <line x1="200" y1="200" x2="120" y2="90"></line>
      <line x1="200" y1="200" x2="270" y2="310"></line>
    </g>
    
    <circle cx="310" cy="110" r="2.5" fill="#1B1F27"></circle>
    <circle cx="120" cy="90" r="2" fill="#1B1F27"></circle>
    <circle cx="270" cy="310" r="1.8" fill="#1B1F27"></circle>
    
    <circle cx="200" cy="200" r="3" fill="#3B5BDB" stroke="none"></circle>
  </g>
</svg>