<svg xmlns="http://www.w3.org/2000/svg" width="54pt" height="36pt" viewBox="0 0 72 48" fill="none">
  <g stroke="#c9a227" stroke-linecap="round" stroke-linejoin="round">
    <path d="M18 14C27 7.8 42.5 8.5 51.5 17.5C59 25 55.2 36.8 44.5 38.5" stroke-width="1.1" stroke-opacity=".34"/>
    <path d="M49.2 16.4L51.8 17.6L50.7 20.3" stroke-width="1.05" stroke-opacity=".48"/>
    <path d="M54 28C49.7 36 38.8 39 29.5 33.2C21.2 28 20.2 18.3 26.5 13.2" stroke-width="1.05" stroke-opacity=".3"/>
    <path d="M31 34.1L28.1 33.2L29 30.4" stroke-width="1" stroke-opacity=".42"/>
    <path d="M25 24H47" stroke-width=".9" stroke-opacity=".26"/>
    <path d="M36 13.5V34.5" stroke-width=".9" stroke-opacity=".2"/>
  </g>
  <g fill="#c9a227">
    <circle cx="18" cy="14" r="2.2" fill-opacity=".62"/>
    <circle cx="36" cy="13.5" r="2.6" fill-opacity=".9"/>
    <circle cx="54" cy="28" r="2.3" fill-opacity=".7"/>
    <circle cx="36" cy="34.5" r="3.1" fill-opacity="1"/>
    <circle cx="25" cy="24" r="1.65" fill-opacity=".36"/>
    <circle cx="47" cy="24" r="1.65" fill-opacity=".36"/>
  </g>
</svg>
