<svg xmlns="http://www.w3.org/2000/svg" width="54pt" height="36pt" viewBox="0 0 72 48" fill="none">
  <g stroke="#c9a227" stroke-linecap="round" stroke-linejoin="round">
    <path d="M9 16.5C20.5 12.5 31 12.5 42.5 16.5C50.5 19.3 57 19.2 64 16.5" stroke-width="1.2" stroke-opacity=".24"/>
    <path d="M10 25C21.5 21 32 21.2 43.5 25C51 27.5 57.7 27.4 63 25" stroke-width="1.25" stroke-opacity=".38"/>
    <path d="M12 33.5C22.5 30.6 34.5 30.7 45.5 33.5C52 35.1 58 35.1 62 33.5" stroke-width="1.05" stroke-opacity=".28"/>
    <path d="M22 25L34 16.2L47 25L36 33.5L22 25Z" stroke-width=".95" stroke-opacity=".38"/>
    <path d="M34 16.2V33.2" stroke-width=".85" stroke-opacity=".28"/>
  </g>
  <g fill="#c9a227">
    <circle cx="22" cy="25" r="2.3" fill-opacity=".72"/>
    <circle cx="34" cy="16.2" r="3" fill-opacity=".95"/>
    <circle cx="47" cy="25" r="2.3" fill-opacity=".72"/>
    <circle cx="36" cy="33.5" r="2.1" fill-opacity=".52"/>
    <circle cx="13" cy="16" r="1.25" fill-opacity=".26"/>
    <circle cx="60.5" cy="16.3" r="1.25" fill-opacity=".2"/>
  </g>
</svg>
